
<svg width="123px" height="50px" viewBox="0 0 264 107" version="1.1" xmlns="http://www.w3.org/2000/svg" xmlns:xlink="http://www.w3.org/1999/xlink">
    <g id="Page-1" stroke="none" stroke-width="1" fill="none" fill-rule="evenodd">
        <path d="M86,34.5 C85.6,33.8 85.5,33.2 85.7,32.9 L90.8,26.6 C91.1,26.1 92.1,26.5 92.9,27.3 C93.7,28.1 94.1,29.1 93.8,29.6 C93.8,29.7 91.5,33.5 87.9,39.4 C89,40.6 90,42.1 90.9,43.9 C91.4,44.9 91.3,45.6 90.5,45.5 C89.8,45.5 88.8,44.6 88.2,43.7 C87.7,42.8 87.2,42 86.7,41.3 C83,47.2 78.2,54.8 73.1,62.4 C87.6,60.7 101.1,54.5 110.2,46.6 C114.3,43.1 117.4,39.3 119.5,35.3 C121.6,31.4 122.5,27.5 122.1,23.6 C121.8,20.4 120.5,17.3 118.1,14.5 C111.5,6.9 94.7,3.4 75.8,4.1 C57.2,4.8 36.6,9.9 21.5,19.4 C14.6,23.7 8.7,29.8 5.7,36.2 C4.4,39.1 3.6,42 3.6,44.8 C3.6,47.4 4.2,49.9 5.6,52.1 C7.2,54.7 10.1,57.1 14.5,59.1 C15.4,59.5 16.3,60.6 16.5,61.4 C16.7,62.3 16.1,62.7 15.2,62.3 C9.5,59.6 5.6,56.1 3.1,52.3 C1.2,49.1 0.3,45.9 0.3,42.6 C0.3,39.5 1.2,36.4 2.6,33.4 C5.7,26.8 11.7,20.5 18.8,16.1 C34,6.5 54.8,1.4 73.7,0.7 C93.7,-0.1 111.8,4.2 119.7,13.3 C123.1,17.2 124.9,21.4 125.4,25.5 C125.8,29.8 124.8,34.1 122.6,38.2 C120.5,42.3 117.2,46.2 113.1,49.8 C103.5,58.1 89.3,64.5 74.2,66 C72.9,66.2 71.6,66.3 70.4,66.4 C59.3,82.5 47.1,98.1 41,98.8 C38,99.1 36.5,97.3 36.1,93.8 C35.5,88.8 39.9,76.6 46.6,64.6 C46.9,64.1 47.1,63.6 47.4,63.1 C47,62.9 46.7,62.7 46.3,62.5 C43.1,60.8 40.8,58.6 39.2,56.2 L39.1,56.2 C37.6,53.8 36.8,51.5 36.5,49.2 C36.2,46.6 36.8,44.2 37.8,42.3 C38.1,41.8 39,42 39.9,42.8 C40.7,43.6 41.2,44.7 40.9,45.2 C40,46.8 39.6,48.9 39.8,51.1 C39.9,52.7 40.5,54.3 41.4,55.7 L41.5,55.8 C42.4,57.1 43.8,58.4 45.9,59.5 C46.7,60 47.7,60.5 48.7,60.9 C55.1,50.2 63.1,40.2 70.7,36.1 C75.6,33.5 80.5,33.1 84.8,36.4 L86,34.5 Z M52.9,62.1 C56.8,62.9 61.7,63.3 67.7,62.9 C73.6,54.2 79.3,45.3 83.5,38.5 C80.5,36.9 77,37.5 73.4,39.5 C66.4,43.3 59,52.2 52.9,62.1 Z M65.2,66.5 C59.6,66.5 55,65.8 51.3,64.6 C50.8,65.6 50.2,66.5 49.7,67.5 C43.4,78.9 39.1,90.2 39.3,95.2 C44.9,93.9 55.2,80.9 65.2,66.5 Z M135.6,23.9 C135.9,23.4 136.9,23.7 137.7,24.5 C138.6,25.3 139,26.4 138.7,26.9 L116.8,62.4 C122.3,58.2 127.9,55.7 128.5,62.3 C128.6,63.2 128.7,69.7 128.7,69.7 C129.1,70.2 132.3,69.4 141.1,61.2 C141.5,60.8 142.1,59.9 142.9,60.7 C143.7,61.6 143.7,62.3 143.3,62.7 C133.4,71.9 128.6,74.2 126.3,71.8 C123.9,69.2 124.7,64.5 124.4,61 C124.1,58.5 108.2,76.4 108.1,76.5 C107.8,76.9 106.9,76.6 106.1,75.8 C105.2,75 104.8,73.9 105.1,73.4 L135.6,23.9 Z M144.7,56.2 C145.1,55.9 146.1,56.3 146.9,57.2 C147.7,58.1 147.9,59.1 147.5,59.5 C147.2,59.7 146.9,59.9 146.7,60.1 C144.6,62 142.9,65.1 141.8,68.2 C141,70.8 140.6,73.2 141.1,74.2 C141.6,74.4 142.2,74.4 143,74.2 C143.9,73.9 145,73.3 146,72.3 C147.4,71.1 148.7,69.3 149.9,67 C150.6,65.7 151.1,64.3 151.5,62.9 C149.7,61.4 148.4,59.6 147.6,57.8 C146.8,56 146.5,54.2 146.6,52.9 C146.8,51.5 147.4,50.5 148.6,50.3 C149.5,50.2 150.3,50.4 151.1,50.8 C152.4,51.5 153.5,52.7 154.2,54.2 C154.8,55.3 155.1,56.5 155.3,57.8 C155.5,59.1 155.5,60.6 155.3,62.1 C157.5,62.5 160.8,62.9 164.3,60.9 C164.8,60.6 165.3,60.2 166.1,61.1 C166.8,62 166.7,62.7 166.2,63 C161.5,65.6 158,66 154.9,64.9 C154.5,66.6 153.9,68.4 153,69.9 C151.8,72.2 150.4,74.2 148.9,75.5 C147.7,76.5 146.6,77.3 145.5,77.6 C144.2,78 142.9,77.9 141.6,77.2 C140.9,76.8 140.2,76.3 139.6,75.6 L139,75 C137.4,72.7 137.5,69 138.6,65.5 C139.7,62.2 141.6,58.9 143.8,56.9 C144.1,56.7 144.4,56.4 144.7,56.2 Z M152,60.5 C152.2,58.9 152.2,57.3 152,56 C151.9,55.1 151.7,54.3 151.5,53.8 L151.6,53.8 C151.5,53.7 151.2,53.7 150.9,53.8 C150.3,53.8 150,54.4 149.9,55.3 C149.8,56.2 150,57.3 150.5,58.4 C150.8,59.2 151.3,59.9 152,60.5 Z M192.4,16.3 C192.7,15.9 193.7,16.1 194.5,17 C195.3,17.8 195.7,18.9 195.4,19.3 C195.4,19.4 188.1,29.5 180.3,41.2 L205.8,41.2 C206.5,41.2 207.6,42 208.1,42.9 C208.7,43.9 208.6,44.7 207.9,44.7 L178,44.7 C175.9,47.9 173.8,51.2 171.8,54.4 L171.8,54.5 C171.8,54.9 171.6,55.1 171.4,55.1 C165.3,65 162,70.7 163.1,72.7 C164.9,76.1 185.2,59.9 185.2,59.8 C185.6,59.5 186.2,59.3 187,60.2 C187.8,61.1 187.2,61.6 186.8,61.9 C186.7,62 164,84.4 159.1,75.4 C157.6,72.6 162.2,63 168.6,52.4 C168.5,52.4 169.2,51.3 169.2,51.3 C169.4,43.7 143.8,44.7 143.8,44.7 C143.1,44.7 142,43.9 141.5,42.9 C140.9,42 141,41.2 141.7,41.2 L175.5,41.2 C183.9,28.1 192.3,16.4 192.4,16.3 Z M170.3,49.5 L173.3,44.7 L160.8,44.2 C163.8,45.4 168.7,47.4 170.3,49.5 Z M188.4,56.2 C188.8,55.9 189.8,56.3 190.6,57.2 C191.4,58.1 191.6,59.1 191.2,59.5 C190.9,59.7 190.6,59.9 190.4,60.1 C188.3,62 186.6,65.1 185.5,68.2 C184.7,70.8 184.3,73.2 184.8,74.2 C185.3,74.4 185.9,74.4 186.7,74.2 C187.6,73.9 188.7,73.3 189.7,72.3 C191.1,71.1 192.4,69.3 193.6,67 C194.3,65.7 194.8,64.3 195.2,62.9 C193.4,61.4 192.1,59.6 191.3,57.8 C190.5,56 190.2,54.2 190.3,52.9 C190.5,51.5 191.1,50.5 192.3,50.3 C193.2,50.2 194,50.4 194.8,50.8 C196.1,51.5 197.2,52.7 197.9,54.2 C198.5,55.3 198.8,56.5 199,57.8 C199.2,59.1 199.2,60.6 199,62.1 C201.2,62.5 204.5,62.9 208,60.9 C208.5,60.6 209,60.2 209.8,61.1 C210.5,62 210.4,62.7 209.9,63 C205.2,65.6 201.7,66 198.6,64.9 C198.2,66.6 197.6,68.4 196.7,69.9 C195.5,72.2 194.1,74.2 192.6,75.5 C191.4,76.5 190.3,77.3 189.2,77.6 C187.9,78 186.6,77.9 185.3,77.2 C184.6,76.8 183.9,76.3 183.3,75.6 L182.7,75 C181.1,72.7 181.2,69 182.3,65.5 C183.4,62.2 185.3,58.9 187.5,56.9 C187.8,56.7 188.1,56.4 188.4,56.2 Z M195.7,60.5 C195.9,58.9 195.9,57.3 195.7,56 C195.6,55.1 195.4,54.3 195.2,53.8 L195.3,53.8 C195.2,53.7 194.9,53.7 194.6,53.8 C194,53.8 193.7,54.4 193.6,55.3 C193.5,56.2 193.7,57.3 194.2,58.4 C194.5,59.2 195,59.9 195.7,60.5 Z M260.5,80.8 C261.3,80.9 262.3,81.7 262.8,82.7 C263.3,83.6 263.2,84.3 262.4,84.3 C241.2,82.5 225.6,82.9 214.3,84.5 C207.6,95.8 200.1,106.7 196.7,106.7 C192.1,106.6 188.1,104.1 186.1,100.6 C185,98.6 184.6,96.3 185.3,94.1 C186,92.1 187.5,90.1 190.2,88.2 C194.3,85.3 201.1,82.7 211.5,81.1 C213.7,77.4 217.2,71 219.1,67.6 C216,70.8 209.6,73.8 207.4,73.3 C203.8,72.5 203.1,70.8 203.7,67.7 C205,60.8 215.9,51.7 222.3,59.6 C224.5,57 226,55 226,55 C226.3,54.5 227.2,54.8 228,55.5 C228.9,56.3 229.3,57.4 229.1,57.9 L228,59.8 L227.9,59.9 C227.9,60 222.8,69.8 216.7,80.5 C227.6,79.3 242,79.2 260.5,80.8 Z M209,85.4 C201.5,87 196.3,89.1 193,91.5 C190.5,93.2 189.1,95.1 188.5,96.8 C188,98.4 188.2,99.7 188.7,100.7 C189.6,102.1 191.8,103.1 194.6,103.2 C197.3,103.2 203.2,95 209,85.4 Z M220.9,61.3 C216.4,55.4 203.2,70.9 208.2,71.2 C210.9,71.4 218.4,66.5 220.9,61.3 Z" id="Photog" fill="#FFFFFF" fill-rule="nonzero"></path>
    </g>
</svg>